<?xml version="1.0" encoding="UTF-8"?><svg id="Layer_2" xmlns="http://www.w3.org/2000/svg" viewBox="0 0 156.87 127.86"><defs><style>.cls-1{fill:#149ddb;}</style></defs><g id="Text"><path class="cls-1" d="m70.99,15.65l-27.86,51.91-17.56,4.96c2.03-3.82,4.32-6.93,6.87-9.35,2.54-2.42,5.47-3.63,8.78-3.63,7.38,0,14.06,2.99,20.04,8.97,5.98,5.98,8.97,13.68,8.97,23.09,0,9.92-3.38,18.45-10.11,25.57-6.75,7.13-15.08,10.69-25,10.69s-17.62-3.5-24.62-10.5c-7-7-10.5-15.58-10.5-25.76,0-4.07.82-8.78,2.48-14.12,1.65-5.34,4.77-12.34,9.35-20.99L42.37,0l28.63,15.65Zm85.88,0l-27.86,51.91-17.18,4.96c1.78-3.82,4.01-6.93,6.68-9.35,2.67-2.42,5.53-3.63,8.59-3.63,7.38,0,14.12,2.99,20.23,8.97,6.11,5.98,9.16,13.68,9.16,23.09,0,9.92-3.38,18.45-10.12,25.57-6.75,7.13-15.08,10.69-25,10.69s-17.62-3.5-24.62-10.5c-7-7-10.5-15.58-10.5-25.76,0-4.07.76-8.78,2.29-14.12,1.53-5.34,4.58-12.34,9.16-20.99L128.63,0l28.24,15.65Z"/></g></svg>